<?xml version="1.0" encoding="utf-8"?>
<!-- Generator: Adobe Illustrator 27.9.5, SVG Export Plug-In . SVG Version: 9.03 Build 54986)  -->
<!DOCTYPE svg PUBLIC "-//W3C//DTD SVG 1.1//EN" "http://www.w3.org/Graphics/SVG/1.1/DTD/svg11.dtd" [
	<!ENTITY ns_extend "http://ns.adobe.com/Extensibility/1.0/">
	<!ENTITY ns_ai "http://ns.adobe.com/AdobeIllustrator/10.0/">
	<!ENTITY ns_graphs "http://ns.adobe.com/Graphs/1.0/">
	<!ENTITY ns_vars "http://ns.adobe.com/Variables/1.0/">
	<!ENTITY ns_imrep "http://ns.adobe.com/ImageReplacement/1.0/">
	<!ENTITY ns_sfw "http://ns.adobe.com/SaveForWeb/1.0/">
	<!ENTITY ns_custom "http://ns.adobe.com/GenericCustomNamespace/1.0/">
	<!ENTITY ns_adobe_xpath "http://ns.adobe.com/XPath/1.0/">
]>
<svg version="1.1" id="Layer_1" xmlns:x="&ns_extend;" xmlns:i="&ns_ai;" xmlns:graph="&ns_graphs;"
	 xmlns="http://www.w3.org/2000/svg" xmlns:xlink="http://www.w3.org/1999/xlink" x="0px" y="0px" width="770px" height="225px"
	 viewBox="0 0 770 225" style="enable-background:new 0 0 770 225;" xml:space="preserve">
<style type="text/css">
	.st0{fill:#D1D1D4;}
	.st1{fill:#4D4D4D;}
	.st2{fill:#333333;}
	.st3{fill:#CED0D0;}
	.st4{fill:#E8E8E9;}
	.st5{fill:#FFFFFF;}
	.st6{fill:#78BDE8;}
	.st7{fill:#17AAFF;}
	.st8{fill:#153D5E;}
	.st9{fill:#295753;}
	.st10{fill:#326274;}
	.st11{fill:#0D1F2C;}
	.st12{fill:#234656;}
	.st13{fill:#C6C5C5;}
	.st14{fill-rule:evenodd;clip-rule:evenodd;fill:#17AAFF;}
	.st15{fill-rule:evenodd;clip-rule:evenodd;fill:#153D5E;}
	.st16{fill-rule:evenodd;clip-rule:evenodd;fill:#78BDE8;}
	.st17{opacity:0.38;}
	.st18{fill:#BCBCBC;}
	.st19{fill:#FFFFFF;stroke:#000000;stroke-width:0.5;stroke-miterlimit:10;}
	.st20{fill:#00A2FF;stroke:#000000;stroke-width:0.5;stroke-miterlimit:10;}
	.st21{stroke:#000000;stroke-width:0.5;stroke-miterlimit:10;}
	.st22{fill:#00A2FF;}
	.st23{fill:none;stroke:#000000;stroke-width:0.5;stroke-miterlimit:10;}
	.st24{fill:#CCCCCC;stroke:#000000;stroke-width:0.5;stroke-miterlimit:10;}
	.st25{fill:#E6E6E6;stroke:#000000;stroke-width:0.5;stroke-miterlimit:10;}
	.st26{fill:#A8A8A8;}
	.st27{fill:#808080;}
	.st28{fill:#58585E;}
	.st29{fill:#ACACB5;}
	.st30{fill:#DFE1E5;}
	.st31{fill:none;stroke:#000000;stroke-width:5.1307;stroke-linecap:round;stroke-linejoin:round;}
	.st32{fill:#17AAFF;stroke:#FFFFFF;stroke-width:1.5;stroke-miterlimit:10;}
	.st33{fill:none;stroke:#FFFFFF;stroke-width:4.0899;stroke-linecap:round;stroke-linejoin:round;}
	.st34{fill-rule:evenodd;clip-rule:evenodd;fill:#FFFFFF;}
	.st35{fill:#00A2FF;stroke:#000000;stroke-width:0.4451;stroke-miterlimit:10;}
	.st36{fill:#666666;stroke:#000000;stroke-width:0.5;stroke-miterlimit:10;}
	.st37{fill:#CCCCCC;stroke:#000000;stroke-width:0.4451;stroke-miterlimit:10;}
	.st38{opacity:0.35;}
	.st39{fill:#99CCFF;}
	.st40{fill:#00A2FF;stroke:#000000;stroke-width:0.5056;stroke-miterlimit:10;}
	.st41{fill:#CCCCCC;}
	.st42{fill:#999999;}
	
		.st43{fill:none;stroke:#000000;stroke-width:4.1978;stroke-linecap:round;stroke-linejoin:round;stroke-miterlimit:10;stroke-dasharray:10.9144,10.0748;}
	.st44{fill:none;stroke:#00A2FF;stroke-width:2.8281;stroke-linecap:round;stroke-linejoin:round;}
	.st45{fill:none;stroke:#00A2FF;stroke-width:3.468;stroke-linecap:round;stroke-linejoin:round;}
	.st46{fill:url(#SVGID_1_);}
	.st47{fill:url(#SVGID_00000124856825168972890310000015010730218251862146_);}
	.st48{fill:url(#SVGID_00000157291366437214950970000015634424583148996536_);}
	.st49{fill:url(#SVGID_00000171712690502551480480000000576917294909476255_);}
	.st50{fill:url(#SVGID_00000029016067654065698030000007879057350095263884_);}
	.st51{fill:url(#SVGID_00000106851299492888156410000016585774017152356751_);}
	.st52{opacity:0.5;fill:#FFFFFF;}
	.st53{fill:url(#SVGID_00000098933755066612357200000013064258497265711020_);}
	.st54{fill:url(#SVGID_00000049902021308726510850000002496574755023120046_);}
	.st55{fill:url(#SVGID_00000181795305377569174790000004776667356391124886_);}
	.st56{fill:url(#SVGID_00000170995981995282396590000003602711748978369186_);}
	.st57{fill:url(#SVGID_00000009561015792829991730000010807693334173880469_);}
	.st58{fill:url(#SVGID_00000111162857908219513730000010967737656451765404_);}
	.st59{fill:url(#SVGID_00000171695354758905078120000011167272820687959461_);}
	.st60{fill:url(#SVGID_00000093143013314384507590000014994904843654827445_);}
	.st61{fill:url(#SVGID_00000097498677349279771230000006796440211687349400_);}
	.st62{fill:url(#SVGID_00000177467165575062097240000009648759652270132378_);}
	.st63{fill:url(#SVGID_00000096772890648269270420000011826535610338385300_);}
	.st64{fill:url(#SVGID_00000023972557533162081120000015224983563485394350_);}
	.st65{fill:url(#SVGID_00000059999597973923684540000008944413877658615704_);}
	.st66{fill:url(#SVGID_00000179641689473592412360000006221754998532088762_);}
	.st67{fill:url(#SVGID_00000168807208184117332680000011744739295659158179_);}
	.st68{fill:#91B3FA;}
	.st69{fill:#7D97F4;}
	.st70{fill:url(#SVGID_00000034053015726001794750000014731310610827275958_);}
	.st71{fill:url(#SVGID_00000057842432097685334580000009884168529623552435_);}
	.st72{fill:url(#SVGID_00000036230241133487296470000016767970369853951155_);}
	.st73{fill:url(#SVGID_00000135668430251318576800000008810964218732943238_);}
	.st74{fill:url(#SVGID_00000088834323948868075770000003737289330731359668_);}
	.st75{fill:url(#SVGID_00000117677539148588350350000015837400950483352752_);}
	.st76{fill:url(#SVGID_00000124123473284061171370000004923395912823737240_);}
	.st77{fill:url(#SVGID_00000128482579692820461450000001810161649100031893_);}
	.st78{fill:url(#SVGID_00000033368889912563131010000011314669380791766418_);}
	.st79{fill:url(#SVGID_00000161609030010155134600000001947660159036202404_);}
	.st80{fill:url(#SVGID_00000066516988989170407420000017363328633319316116_);}
	.st81{fill:url(#SVGID_00000103229201444980604010000011826701002428973447_);}
	.st82{fill:url(#SVGID_00000053532589731640897150000004890991003233002389_);}
	.st83{fill:url(#SVGID_00000073702101899020254900000018057215394005707696_);}
	.st84{fill:url(#SVGID_00000066513430435098041260000007548491130580433552_);}
	.st85{fill:url(#SVGID_00000157267884863956662980000007775055738695838861_);}
	.st86{fill:url(#SVGID_00000018925790382463408490000011035231490461494949_);}
	.st87{fill:url(#SVGID_00000176005271300234743600000015557697762172682935_);}
	.st88{fill:url(#SVGID_00000138566107146080383100000012127122744739183013_);}
	.st89{fill:url(#SVGID_00000057137504452227408540000001598831206925960884_);}
	.st90{fill:url(#SVGID_00000145774700132089199070000012123574203543149981_);}
	.st91{fill:url(#SVGID_00000068673337853882177210000014256959796125286542_);}
	.st92{fill:url(#SVGID_00000017508972937176158820000005314589529287980981_);}
	.st93{fill:url(#SVGID_00000167390700314065438300000004359963502116042652_);}
	.st94{fill:url(#SVGID_00000049188284225996242550000000335296636903636668_);}
	.st95{fill:url(#SVGID_00000085947570036787936670000005546203322106457252_);}
	.st96{fill:url(#SVGID_00000106845646945388072320000011174230782192526745_);}
	.st97{fill:url(#SVGID_00000072967379090839154270000017097482544238905506_);}
	.st98{fill:url(#SVGID_00000098180150093510513650000008276388602734870200_);}
	.st99{fill:url(#SVGID_00000060030649010298258900000007453339883985576611_);}
	.st100{fill:url(#SVGID_00000143576723979387777420000005143653570322959764_);}
	.st101{opacity:0.24;fill:#FFFFFF;}
	.st102{fill:#59C2FF;}
	.st103{fill:#FEFEFE;}
	.st104{fill:#17AAFF;stroke:#000000;stroke-width:0.5;stroke-miterlimit:10;}
	.st105{fill:#DFE1E5;stroke:#000000;stroke-width:0.5;stroke-miterlimit:10;}
	.st106{fill:#B3B3B3;stroke:#000000;stroke-width:0.5;stroke-miterlimit:10;}
	.st107{fill:#87D3FF;}
	.st108{fill:#007BDC;}
	.st109{fill:#808080;stroke:#000000;stroke-width:0.5;stroke-miterlimit:10;}
	.st110{fill:#47629E;}
	.st111{fill:#17AAFF;stroke:#000000;stroke-width:0.3998;stroke-miterlimit:10;}
	.st112{fill:#CCCCCC;stroke:#000000;stroke-width:0.3998;stroke-miterlimit:10;}
	.st113{fill:#17AAFF;stroke:#000000;stroke-width:0.3998;stroke-linecap:round;stroke-miterlimit:10;}
	.st114{fill:#F2F2F2;}
	.st115{opacity:0.78;fill:#FFFFFF;}
	.st116{fill:#E6E6E6;}
	.st117{fill:none;}
	.st118{fill:#29B1FF;}
	.st119{fill:#FFFFFA;}
	.st120{fill:#91D7FF;stroke:#000000;stroke-width:0.5;stroke-miterlimit:10;}
	.st121{fill:#00A2FF;stroke:#000000;stroke-width:0.5;stroke-linecap:round;stroke-linejoin:round;stroke-miterlimit:10;}
	.st122{fill:#00A2FF;stroke:#000000;stroke-width:0.5;stroke-linecap:round;stroke-miterlimit:10;}
</style>
<metadata>
	<sfw  xmlns="&ns_sfw;">
		<slices></slices>
		<sliceSourceBounds  bottomLeftOrigin="true" height="1363.4" width="3309.7" x="-959.7" y="-1363.3"></sliceSourceBounds>
	</sfw>
</metadata>
<rect y="-0.2" class="st0" width="770" height="225"/>
<g>
	<rect x="129.7" y="98.4" class="st7" width="15.3" height="99.5"/>
	<rect x="155.3" y="119.2" class="st7" width="15.3" height="78.7"/>
	<rect x="180.9" y="37.8" class="st7" width="15.3" height="160.1"/>
	<rect x="206.5" y="154.5" class="st7" width="15.3" height="43.4"/>
	<rect x="232.1" y="61.9" class="st7" width="15.3" height="136"/>
	<rect x="257.7" y="89" class="st7" width="15.3" height="108.9"/>
	<rect x="283.3" y="118.4" class="st7" width="15.3" height="79.5"/>
</g>
<path d="M407.4,187.7c0,0-0.6,3.2-0.9,6.3c-0.1,1.2,0.8,2.3,2,2.4c4.2,0.2,13.1,0.6,16.3,0.5c0.5,0,0.8-0.5,0.6-1l0,0
	c-0.1-0.4-0.4-0.7-0.8-0.9l-14.7-6.9L407.4,187.7z"/>
<path class="st20" d="M406.9,185.8l0.4,3.8c0,0,2.6,1.2,4.4-0.1l-1-4.2L406.9,185.8z"/>
<path class="st20" d="M408.1,114.6c-0.2,1-1.7,49.3,3.3,71.1c0.1,0.4-0.1,0.7-0.4,0.9c-0.8,0.3-2.4,0.8-4.2,0.8
	c-0.6,0-1.1-0.4-1.2-0.9c-1.4-5-8.3-30.3-9-54.5c-0.8-26.9,0-0.9,0-0.9l0.8-16.6L408.1,114.6z"/>
<path d="M390.4,189.1c0,0-0.9,1.6-1.8,5.8c-0.2,0.8,0.4,1.5,1.1,1.6c1.4,0.1,3.5,0.3,5.2,0.3c0.8,0,1.4-0.7,1.3-1.5
	c-0.2-1.6-0.7-4.1-2.5-6.1L390.4,189.1z"/>
<path class="st20" d="M389.6,184.3l1,5.7c0,0,1,0.8,3.1,0.2l-0.4-6.2L389.6,184.3z"/>
<path class="st20" d="M408.4,113.3l-20.9,2.5c-4.5,25.5,0.3,63.2,2,70.5c0.1,0.5,0.5,0.8,0.9,0.9c0.8,0.1,2.1,0.3,3.3-0.1
	c0.4-0.1,0.7-0.5,0.8-1c0.3-5.9,0.2-42.5,4.3-56.9"/>
<g>
	<path class="st19" d="M414.9,67.6c-12.7-0.3-26.7,3.1-26.7,3.1c-4,22-1.1,47.5-1.1,47.5c9.8,2.7,20.9-1.4,20.9-1.4
		c1.7-9.2,9.6-35.1,9.6-35.1c6.2-0.7,11.3-2.4,15.6-4.8c-3.2-3.7-4.6-8.5-5.3-11.3C423.3,67,418.8,67.7,414.9,67.6z"/>
	<path class="st20" d="M452.8,48.2c0,0,1,1.1,2.1-0.4c0.6-0.8,1.2-1.8,1.6-2.5c0.4-0.8,0.6-1.7,0.4-2.5c-0.3-1.1-0.9-1.9-1.4-2.8
		l2.5-2.5c0,0,0.7-0.8-0.1-1.7c0,0-5.1,4.4-7.7,7.9c-0.5,0.7,0,3,0,3.8l-0.3,1.1c-1.9,7.9-11.8,14.2-21.9,17.2
		c0.6,2.8,2.1,7.5,5.3,11.3c16.8-9.2,19.4-27.7,19.4-27.7L452.8,48.2z"/>
</g>
<path class="st19" d="M388.2,70.7c0,0-11.9,7.9-14,18.1c2.2,0.2,6.3,0.8,10.3,2.9c0.9-4.8,8.4-8.7,8.4-8.7"/>
<path class="st20" d="M403.1,94.7c0,0-13.4,7.4-17.8,0.9c-0.9-1.3-1.1-2.7-0.9-3.9c-4-2.1-8-2.7-10.3-2.9c-0.6,3.1-0.3,6.3,1.4,9.7
	c7.7,14.5,29.3-0.5,29.3-0.5L403.1,94.7z"/>
<path class="st20" d="M402.1,57.2L398,68.8c-0.1,0.2,0,0.4,0.2,0.5c1.1,0.6,5,2.4,9.8-0.6c0.5-0.3,0.8-0.8,0.9-1.4l1.4-10.1
	L402.1,57.2z"/>
<g>
	<path class="st20" d="M411,46.5c0,0,4.4,8.4,3.8,11.8c-0.6,3.4-6.1,3.1-10.9,0.3l-3.3-9L411,46.5z"/>
	<path class="st21" d="M404.1,54.1c0.2-0.1,0.3-0.3,0.2-0.5c-0.4-0.5-1-1.7-1.2-2.6c0,0-0.8-0.5,2-1.2c2.8-0.6,7.1-1.7,8-4.1
		c0.9-2.3-1.3-8.3-5-3.6c-0.1,0.2-0.4,0.2-0.5,0c-0.6-0.8-2.1-2.4-4.3-1.4c-2,0.9-2.3,2.4-2.3,3.1c0,0.2-0.2,0.4-0.4,0.3
		c-1-0.2-3.5-0.4-4.7,2.1c-1,2.1-0.4,3.3,0.2,3.8c0.2,0.2,0.1,0.5-0.2,0.6c-0.7,0.2-1.6,0.8-1.5,2.3c0.1,2.2,2.5,2,3.2,1.9
		c0.1,0,0.2,0,0.3,0.1c0.6,0.7,3.2,3.5,6.1,3.9c0.3,0,0.4-0.2,0.4-0.5l-1.2-3.7c-0.1-0.2,0-0.4,0.2-0.4L404.1,54.1z"/>
	<path class="st22" d="M404.6,54.6c0,0-3.1-2.2-3.4-0.4c-0.2,1.8,2.8,2.7,4.3,2L404.6,54.6z"/>
</g>
<g>
	<path class="st20" d="M400.4,106.4l7.3-25.4c0.1-0.3,0.3-0.5,0.6-0.5c1.3-0.2,5.1-0.6,9.6-1c5.3-0.5,11.5-0.8,15.2-0.5
		c0.5,0,0.8,0.6,0.6,1.1c-2.1,4.2-10.7,21.5-15.1,27.2c-0.1,0.2-0.4,0.3-0.6,0.3l-16.9-0.2C400.6,107.3,400.3,106.9,400.4,106.4z"/>
	<path class="st20" d="M402.2,100.2c0,0-1-4.2-0.6-5.7c0.4-1.5,1.2-3.4,3.8-3c2.6,0.4,5.8,1.5,5.8,1.5s-0.2,1.9-2.2,1.3l1.2,1
		c0,0-0.2,1.5-1.9,0.7l1.2,1.3c0,0-0.7,1.3-2,0.5C406.3,97.1,405.7,100.7,402.2,100.2z"/>
</g>
<path class="st20" d="M417.4,87c0,1.2,1,2.1,2.1,2.1c1.2,0,2.1-1,2.1-2.1c0-1.2-1-2.1-2.1-2.1C418.4,84.9,417.4,85.9,417.4,87z"/>
<path class="st23" d="M408,88.3l1.5-5c0.2-0.8,0.9-1.4,1.7-1.6c4.7-1,17.1-1.2,17.6-1.2"/>
<g>
	<path d="M322.3,159.7c-0.8,1.1-3.9,27.2-4.3,36.8c0,0.6,0.5,1.2,1.1,1.2l0,0c0.6,0,1-0.4,1.1-1l5.6-36.2L322.3,159.7z"/>
	<path d="M347.1,159.7c0.8,1.1,3.9,27.2,4.3,36.8c0,0.6-0.5,1.2-1.1,1.2l0,0c-0.6,0-1-0.4-1.1-1l-5.6-36.2L347.1,159.7z"/>
	<path d="M317.6,157.6l0,0.3c0,2,1.7,3.7,3.9,3.8l26.1,0.4c2.2,0,4-1.5,4.1-3.5l0-0.3c0.1-2.1-1.7-3.9-3.9-3.9l-26.1-0.5
		C319.5,153.9,317.6,155.6,317.6,157.6z"/>
</g>
<g>
	<path d="M383.9,195.1c0-0.1-0.1-0.2-0.1-0.3c-1.3-1.6-3.8-4.1-7.2-4.1c-5,0.1-6.8,0.6-10.6,0l-0.9,3c-0.1,0.3-0.1,0.6,0,0.9
		c0.2,0.8,0.9,1.4,1.7,1.4h16.4C383.7,196.1,384,195.6,383.9,195.1z"/>
	<path class="st20" d="M367.1,187.5l-1.1,3.8c0,0,2.5,1.1,4.7,0.2l0.4-3.3L367.1,187.5z"/>
	<path d="M409.6,185.7c-0.1-0.1-0.2-0.1-0.3-0.1c-2-0.5-5.5-0.8-8.1,1.4c-3.9,3.2-4.9,4.7-8.3,6.7l1.2,2.9c0.1,0.3,0.3,0.5,0.5,0.7
		c0.6,0.5,1.5,0.5,2.2,0l12.8-10.3C410.1,186.6,410,186,409.6,185.7z"/>
	<path class="st19" d="M343,143.9c0,0,27.8,2.3,33.5,5s-4.7,40.3-4.7,40.3s-1.6,0.7-5-0.3c0,0,3.5-27.7,0.9-33.8l-30.1-4.9
		L343,143.9z"/>
	<path class="st20" d="M390.2,188.3c0.3,0.2,2.8,5.3,2.8,5.3s2.8-0.6,3.4-2.4l-2.5-4.6L390.2,188.3z"/>
	<path class="st19" d="M326.2,143.6c0,0-0.9,2.2-0.9,5.1c0.1,4,3.3,7.3,7.3,7.5l32.8,1.5c0.7,0,1.3,0.5,1.5,1.2
		c0.8,3,4.5,12.2,23,30.4c0.5,0.5,1.3,0.6,1.8,0.2l2.6-1.7c0.3-0.2,0.4-0.5,0.2-0.8l-19.1-32.7c-1-1.7-2.6-2.9-4.5-3.3l-28-7.2
		L326.2,143.6z"/>
	<path class="st20" d="M358.6,92.6c0,0-3.5,6.2-7.1,9.2l7.4,4.1c0,0,1.7-6.6,5.5-8.5L358.6,92.6z"/>
	<path class="st21" d="M325.6,143.9c0,0,8.9,2.2,17.3,0c0,0,11.8-15.9,16.4-20.2c0,0,7.3,11.5,23.6,13.2l0.9-2c0,0-12.9-6-16.9-15.1
		c-4-9.2-5.6-13.1-9.2-15.5c-2.3-1.5-3.6-2.5-4.3-3.1c-0.4-0.3-0.9-0.3-1.3-0.1C348.2,103.3,330.1,115.7,325.6,143.9z"/>
	<path class="st20" d="M382,133.7l1.8-0.5l5.6-1.3c0.7-0.2,1.4,0,2,0.3l4.8,3l-13.2,0L382,133.7z"/>
	<g>
		<path class="st20" d="M364.2,83.3c0,0,3.4,5.7,4,8.8c0.6,3.1,1.5,5.1-2,6.2c-3.6,1.1-6.9-0.3-9-3.2c0,0-3.3-4.5-2.9-6.6
			C354.6,86.5,364.2,83.3,364.2,83.3z"/>
		<path d="M358.1,92.7l0.5-0.1c0,0-2.4-3.7-0.8-4.6c1.6-0.9,8-3.1,9.2-5.7c1.1-2.5-0.5-5.2-2.5-5.8c-0.1,0-0.3,0-0.3,0.2l-0.1,0.3
			c-0.1,0.2-0.4,0.2-0.5,0l0,0c-0.1-0.2-0.4-0.2-0.5,0c-0.3,0.8-1.4,2.1-4.5,3.1c-4.4,1.4-7.1,3.6-6.8,6.8c0,0.2-0.2,0.3-0.4,0.3
			c-0.4-0.2-0.9-0.2-1.5,0.5c-1.1,1.2-0.2,3.8,2.8,5.7c0.1,0.1,0.2,0.3,0,0.4c-0.5,0.4-1.1,1.2,1,2c2.1,0.8,3.2,0.5,3.6,0.4
			c0.1,0,0.2-0.2,0.2-0.3l-0.5-2.7c0-0.1,0.1-0.3,0.2-0.3L358.1,92.7z"/>
		<path class="st22" d="M358.3,93.3c0,0-1.5-3.7-3.1-2.4c-1.6,1.3,1.5,4.2,2.9,4.2L358.3,93.3z"/>
	</g>
</g>
<g>
	<g>
		<path d="M376.9,137.9C376.9,137.9,376.9,137.9,376.9,137.9l28.3,0c0.7,0,1.3-0.6,1.3-1.3c0-0.7-0.6-1.3-1.3-1.3l-28.2,0
			c-0.7,0-1.3,0.6-1.3,1.3C375.7,137.3,376.2,137.8,376.9,137.9z"/>
	</g>
	<g>
		<path d="M416.1,110.2C416,110.3,416,110.3,416.1,110.2l-11.9,25.6c-0.3,0.6,0,1.4,0.6,1.7c0.6,0.3,1.4,0,1.7-0.6l11.9-25.6
			c0.3-0.6,0-1.4-0.6-1.7C417.1,109.4,416.4,109.7,416.1,110.2z"/>
	</g>
</g>
<g>
	<rect x="486.9" y="163.6" width="3" height="32.2"/>
	<path d="M501.4,196.4h-26.1l0,0c0-1.1,0.9-1.9,1.9-1.9h22.2C500.6,194.4,501.4,195.3,501.4,196.4L501.4,196.4z"/>
	<path d="M505.3,162.4c0,1.8-1.4,3.2-3.2,3.2h-26.4c-1.8,0-3.2-1.4-3.2-3.2v-2.9c0-1.8,1.4-3.2,3.2-3.2h26.4c1.8,0,3.2,1.4,3.2,3.2
		V162.4z"/>
</g>
<g>
	<path class="st20" d="M466.4,142.1c0,0-4.4,0.7-9.4,4c-0.8,0.5-1.2,1.4-1.1,2.4c0.6,4.7,3,20,11.1,34.9c0.4,0.8,0.5,1.7,0.4,2.6
		l-1.4,6.5l-2.6,2.4h6.7l4.5-12.1l-1.9-0.6c-1.5-0.5-2.5-1.8-2.5-3.4l-0.2-12.9c0.2-5.8-3.5-9.7-3.5-9.7l10.7-0.5L466.4,142.1z"/>
	<path d="M460.8,196.1c-0.6,0.8,6.6,1.9,10.2,0.1c0,0,5-8.7,5-13.2c0,0-0.4-0.9-3.3-0.7c0,0-1.7,10.4-3.5,11.5c-1.8,1.2-5,0.1-5,0.1
		S461.7,194.9,460.8,196.1z"/>
	<path class="st20" d="M475.7,156.3c-0.1-0.1-11.5-1.4-11.5-1.4s0.4,3.5-0.8,8.3c-1.2,4.8-18,25.6-18,25.6l1.8,5.6
		c-5.5,1.9-10.1,2.2-15.4,1l10.3-6.6c0,0,10.2-34.9,16.5-41.1l11.5-4L475.7,156.3z"/>
	<path class="st24" d="M501.4,136.1c0,0,6.6,9.8,7.1,14.3c0.5,4.5-1.8,6.3-8.7,6.6s-25.4,0.3-25.4,0.3l-15.8-13.5
		c0,0,11.5-4.1,14.5-5.3C476.1,137.3,501.4,136.1,501.4,136.1z"/>
	<path d="M446.5,192.5c0,0,1.9,1.8,0.6,3.9c0,0-15,2.7-19.1,1.5c0,0,0.8-1.9,5.4-4.1l-0.3,0.3c-0.4,0.3-0.2,1,0.4,1
		C436.5,194.8,442.8,194.3,446.5,192.5z"/>
</g>
<g>
	<path d="M472.8,73.8c13.5-2.3,19.9,8.7,19.4,11c-0.1,0.3,0.2,0.6,0.5,0.5c1.5-0.4,5-0.9,7.1,1.7c1.9,2.3,0.5,4.6-0.7,5.8
		c-0.3,0.3,0,0.8,0.4,0.7c2.8-0.4,9-0.4,10.1,5.4c0.9,5.4-2.8,6.9-5.1,7.4c-0.4,0.1-0.5,0.6-0.1,0.8c1.1,0.7,2.4,2.2,1.9,5
		c-0.8,4.5-9.7,4.1-10.7,4.1c-0.1,0-0.1,0-0.2-0.1l-14.2-8.1c-0.1-0.1-0.2-0.2-0.2-0.3l-2.9-16.5c0-0.1,0-0.3,0.1-0.4l-9.2-13
		C465.6,77.2,472.7,73.8,472.8,73.8z"/>
	<path d="M483.6,134.8c0,0-7.7-7.3-11.5-12.2c-2-2.6-2.7-6.1-1.7-9.3c1.7-5.8,4.8-11.9,5.1-12.8c0.4-1.4,9.1-1.4,9.1-1.4
		s17.9,11.1,24.6,29.7l-8.4,2.2c0,0-4.4-7.4-8.8-12.2c0,0,7.6,10,7.8,14.1L483.6,134.8z"/>
	<path class="st20" d="M474.4,92.5c0.1,0.3,2.3,7.8,2.5,7.9c0.2,0.2,4.9,0.4,7.2-1.1l-5.6-10.9L474.4,92.5z"/>
	<g>
		<path class="st20" d="M465.4,82.9c0,0-1.1,4.3,1.9,10c3,5.7,6.4,5.7,8.3,3.9c1.9-1.8,4.2-5,3.6-10.5
			C478.6,80.8,466.9,77.5,465.4,82.9z"/>
		<path d="M475,86.6c0,0-5-7.6-9.7-1.6l-0.1,2.2c0,0-5.5-0.7-4.5-5.7c1-5,5.7-8.2,11.8-6s9.6,4.4,10,8.8c0.4,4.4-3.1,3.4-3.1,3.4
			s-1.1-3.1-2.7-3.4c-1.6-0.3-1.2,2.1-1.2,2.1L475,86.6z"/>
		<path class="st22" d="M477.1,88.3c0,0-3.7-4,0.1-4.5c3.6-0.4,1.7,4.1,1.4,5.7L477.1,88.3z"/>
	</g>
	<path class="st20" d="M467.9,135.3l5.6-5.4l7.8,3.3c0,0,7.8,1.2,12.2,0c4.5-1.2,4.5-1.2,4.5-1.2l10.1-3.1l1.6,4.5
		c0.4,1.1,0,2.4-1,3.1c-0.9,0.6-1.9,1.3-2.5,1.6c-1.3,0.6-32.7-0.4-32.7-0.4L467.9,135.3z"/>
</g>
<g>
	<path class="st20" d="M489.3,137.9C489.3,137.9,489.2,137.9,489.3,137.9l-32.8,0c-0.8,0-1.5-0.7-1.5-1.5c0-0.8,0.7-1.5,1.5-1.5
		l32.8,0c0.8,0,1.5,0.7,1.5,1.5C490.7,137.2,490.1,137.8,489.3,137.9z"/>
	<path class="st20" d="M427,108.1h27.3c2,0,3.8,1.2,4.7,3l12.6,26.8h-33.9c-1.3,0-2.5-0.8-2.9-2l-9.8-24.8
		C424.4,109.7,425.4,108.1,427,108.1z"/>
	<path class="st20" d="M446.2,121.8c0.6,1.8,0.2,3.6-1,4c-1.1,0.4-2.5-0.8-3.1-2.7c-0.6-1.8-0.2-3.6,1-4
		C444.2,118.8,445.6,120,446.2,121.8z"/>
</g>
<g>
	<g>
		<path d="M526.6,192.3c0,0,0.3,1.9,0.5,4.2c0.1,1-0.7,1.8-1.6,1.9c-3.4,0.3-11,0.9-15.9,0.2c-0.7-0.1-1-0.9-0.4-1.4
			c2-1.9,6.9-5.5,14.9-6.3L526.6,192.3z"/>
		<path class="st20" d="M528.3,188l-1.7,4.2c-0.2,0.6-0.8,0.9-1.4,0.9c-0.4,0-0.9-0.1-1.4-0.3c-1-0.3-1.5-1.3-1.2-2.3l1.3-4.3
			L528.3,188z"/>
		<path d="M557.3,195.6c0,0-3.4,2.8-4.7,6.5c-0.4,1,0.4,2.1,1.5,2.1h7c1,0,1.8-0.9,1.6-1.9C562.2,199.7,561,195.6,557.3,195.6z"/>
		<path class="st20" d="M561.5,191.9c0,0-0.7,3-1.2,5c-0.1,0.4-0.5,0.6-0.8,0.4c-1.1-0.4-1.9-0.5-2.5-0.5c-0.3,0-0.5-0.2-0.5-0.5
			l-0.1-5L561.5,191.9z"/>
		<path d="M543.5,123.6l-20.7,63c0,0,4,2.6,5.8,2.5l24.5-50.6c0,0,4.3,31.2,2.2,53.6l7,0.5c0,0,11.4-57.3,2.8-76.9L543.5,123.6z"/>
	</g>
	<path class="st24" d="M539.6,68.1c0,0,16.7,1.5,14.4,13.4c0,0,9.3,17.4,13.6,37.9c0.1,0.7-0.3,1.3-1,1.4l-27.9,4.8
		c-0.8,0.1-1.5-0.3-1.7-1.1l-6.7-25.7l-2.4,12.2l-8.4-2.3l6.9-35.2C526.4,73.5,527.4,68.4,539.6,68.1z"/>
	<path class="st20" d="M531.9,129.4c0.9-0.5,1.9-0.6,2.9-0.4l1.9,0.5c0.4,0.1,0.8-0.2,0.9-0.6l2-17.9c2.5,1.2,6.1,1,7.3,1l-4.6,21.1
		h-16.2L531.9,129.4z"/>
	<path class="st20" d="M488.9,90.7l0.5-1.6c0.3-0.9,1-1.7,1.9-2.1l8.8-3.6c0,0,0.1-1.1-1.9-1.9s-1.5-3-1.5-3s2.7,1.2,6.7,3.2
		c2.3,1.1,3.6,3.1,4.3,4.6l20,24.4l-2.4,1.6c-3.1,2.1-7.3,1.1-9.1-2.2l-10.8-20.8C500,91,494.5,91.3,488.9,90.7z"/>
	<g>
		<path class="st20" d="M534.2,56.8l5.1,14.4c0,0-4.6,3.6-7.9,2.4l-2.6-8.3C528.8,65.3,530.8,55.2,534.2,56.8z"/>
		<g>
			<path class="st20" d="M518.8,51.6c0,0.2,5,14,5,14l7.8-3l-2.8-13.8C528.8,48.8,518.8,47.9,518.8,51.6z"/>
			<path class="st25" d="M527.5,52.2l2,7.1c0,0.1,0,0.2,0,0.3c0,0.6-0.1,2.6-2.2,2.3c-1.9-0.2-3.5-0.4-4.6,0.1
				c-0.5,0.2-0.7,0.8-0.5,1.3c0.5,1.3,1.5,4.1,2.8,6.4c0.3,0.5,0.8,0.6,1.3,0.4c1.5-0.7,4.5-2.2,6.7-3.9c0.3-0.2,0.4-0.6,0.4-1
				c-0.3-1.8-1.4-7.4-1.4-9c0-1.5,1.6-2.6,2.4-3.1c0.2-0.1,0.4-0.4,0.5-0.6c0.2-1,0.4-3.1-2.4-3.6c-0.6-0.1-1-0.7-0.8-1.2
				c0.2-1.2,0.2-2.8-2-3.5c-2.2-0.6-3.6,0.7-4.3,1.7c-0.3,0.4-0.8,0.5-1.3,0.3c-0.3-0.1-0.6-0.1-0.9,0.2c-0.5,0.4-1.2,0.3-1.5-0.2
				c-0.6-1-1.8-1.9-3.8-1.3c-3.5,1.1-3.4,5.2-2.1,7.4c1.3,2.2,5.1,0.8,6.8-0.7c1.4-1.1,3.4-0.4,4.3-0.1
				C527.2,51.6,527.4,51.9,527.5,52.2z"/>
			<path class="st20" d="M532.7,58.8c0,0-2.1-4-0.7-5.2c1.4-1.2,3.7-1,3.7,2.1C535.6,59.5,532.7,58.8,532.7,58.8z"/>
		</g>
	</g>
</g>
<g>
	<path class="st26" d="M362.6,198.9c-0.1,0-0.3,0-0.4-0.1c-0.5-0.3-0.8-0.9-0.6-1.5l22.3-56.5c0.2-0.6,0.9-0.9,1.4-0.6
		c0.5,0.3,0.8,0.9,0.6,1.5l-22.3,56.5C363.4,198.7,363,198.9,362.6,198.9z"/>
	<path class="st26" d="M387.6,198.9c-0.4,0-0.8-0.3-1-0.7l-22.3-56.5c-0.2-0.6,0-1.3,0.6-1.5c0.5-0.3,1.2,0,1.4,0.6l22.3,56.5
		c0.2,0.6,0,1.3-0.6,1.5C387.9,198.9,387.8,198.9,387.6,198.9z"/>
	<path class="st26" d="M513.7,198.9c-0.1,0-0.3,0-0.4-0.1c-0.5-0.3-0.8-0.9-0.6-1.5l22.3-56.5c0.2-0.6,0.9-0.9,1.4-0.6
		c0.5,0.3,0.8,0.9,0.6,1.5l-22.3,56.5C514.5,198.7,514.1,198.9,513.7,198.9z"/>
	<path class="st26" d="M538.8,198.9c-0.4,0-0.8-0.3-1-0.7l-22.3-56.5c-0.2-0.6,0-1.3,0.6-1.5c0.5-0.3,1.2,0,1.4,0.6l22.3,56.5
		c0.2,0.6,0,1.3-0.6,1.5C539.1,198.9,538.9,198.9,538.8,198.9z"/>
</g>
<g>
	<path class="st27" d="M510.5,136.8l32.3,0v-3.3h-32.3C511.1,133.5,511.1,136.8,510.5,136.8z"/>
	<path d="M542.5,136.8c0.1,0,0.3-0.1,0.3-0.3v-2.8c0-0.1-0.1-0.3-0.3-0.3h-32.7c-0.1,0-0.3-0.1-0.3-0.3V133c0-0.1,0.1-0.3,0.3-0.3
		h34.8c0.8,0,1.4,0.6,1.4,1.4v2.1c0,0.7-0.6,1.3-1.3,1.3h-34.9c-0.1,0-0.3-0.1-0.3-0.3v-0.2c0-0.1,0.1-0.3,0.3-0.3H542.5z"/>
</g>
<path d="M547.4,139.1c0.1-0.4,0-0.8-0.4-1c-0.4-0.3-0.9-0.5-1.5-0.5H352.3c-0.8,0-1.4,0.3-1.9,0.7c-0.4,0.4-0.5,0.9-0.1,1.4l2.1,3
	c0.5,0.7,1.5,1.1,2.7,1.1h189.2c1.1,0,2-0.5,2.2-1.2L547.4,139.1z"/>
<g>
	<g>
		<g>
			<path d="M125.6,57.7c0.3,0,0.4,0.1,0.5,0.2c0.1,0.1,0.1,0.2,0.1,0.3c0,0,0,0.1,0,0.1v0.3c-0.4,5.5-2.6,10.9-6.3,15.2
				c0,0-0.1,0.1-0.1,0.1c-0.1,0.2-0.3,0.3-0.5,0.3c-0.1,0-0.4-0.1-0.5-0.2l-15.1-15.1c-0.1-0.1-0.2-0.3-0.2-0.5
				c0-0.3,0.4-0.7,0.7-0.7H125.6 M125.6,56.7h-21.4c-0.9,0-1.7,0.8-1.7,1.7c0,0.5,0.2,0.9,0.5,1.2l15.1,15.1
				c0.3,0.3,0.8,0.5,1.2,0.5c0.6,0,1.1-0.3,1.4-0.8c3.7-4.3,6.1-9.8,6.5-15.8c0-0.1,0-0.2,0-0.3C127.3,57.5,126.6,56.7,125.6,56.7
				L125.6,56.7z"/>
		</g>
	</g>
</g>
<g>
	<g>
		<g>
			<path d="M99.1,27.1c13.2,0.9,23.7,11.4,24.5,24.5c0,0.3-0.4,0.7-0.7,0.7H99.1c-0.3,0-0.7-0.4-0.7-0.7V27.8
				C98.4,27.5,98.8,27.1,99.1,27.1 M99.1,26.1c-0.9,0-1.7,0.8-1.7,1.7v23.8c0,0.9,0.8,1.7,1.7,1.7h23.8c0.9,0,1.7-0.8,1.7-1.7
				C123.8,37.9,112.8,27,99.1,26.1L99.1,26.1z"/>
		</g>
	</g>
</g>
<g>
	<g>
		<g>
			<path d="M92.5,30.4c0.3,0,0.7,0.4,0.7,0.7v24.8c0,0.7,0.3,1.4,0.8,1.9l17.5,17.5c0.1,0.1,0.2,0.3,0.2,0.5c0,0.2-0.1,0.4-0.2,0.5
				c0,0,0,0-0.1,0c-4.8,4.2-10.8,6.5-17.2,6.5C79.8,82.8,68,71.1,68,56.6C68,42.8,78.8,31.3,92.5,30.4 M92.5,29.4
				C78.3,30.3,67,42.1,67,56.6c0,15,12.2,27.2,27.2,27.2c6.9,0,13.1-2.5,17.9-6.7c0.4-0.3,0.6-0.8,0.6-1.3s-0.2-0.9-0.5-1.2
				L94.7,57.1c-0.3-0.3-0.5-0.7-0.5-1.2V31.1C94.2,30.2,93.4,29.4,92.5,29.4L92.5,29.4z"/>
		</g>
	</g>
</g>
<g>
	<path class="st34" d="M132.7,183.4c-1.2,1.2-3.2,1.4-4.6,0.1c-1.2-1.2-1.4-3.2-0.1-4.6l25.4-26.8c1.2-1.2,3.2-1.4,4.6-0.1
		c1.2,1.2,1.4,3.2,0.1,4.6L132.7,183.4z M166.3,157c-1.1-1.4-0.9-3.4,0.5-4.5s3.4-0.9,4.5,0.5l10.1,12.3c1.1,1.4,0.9,3.4-0.5,4.5
		c-1.4,1.1-3.4,0.9-4.5-0.5L166.3,157z M194.3,170c-1.2,1.4-3.2,1.4-4.6,0.1s-1.4-3.2-0.1-4.6l43.1-46.2c1.2-1.4,3.2-1.4,4.6-0.1
		s1.4,3.2,0.1,4.6L194.3,170z"/>
	<path class="st34" d="M123.5,175.2c3.6,0,7,1.5,9.3,3.9c2.4,2.4,3.9,5.7,3.9,9.3s-1.5,7-3.9,9.3c-2.4,2.4-5.7,3.9-9.3,3.9
		s-7-1.5-9.3-3.9c-2.4-2.4-3.9-5.7-3.9-9.3s1.5-7,3.9-9.3C116.5,176.7,119.9,175.2,123.5,175.2z"/>
	<path class="st34" d="M162.6,134.1c3.6,0,7,1.5,9.3,3.9c2.4,2.4,3.9,5.7,3.9,9.3s-1.5,7-3.9,9.3c-2.4,2.4-5.7,3.9-9.3,3.9
		s-7-1.5-9.3-3.9c-2.4-2.4-3.9-5.7-3.9-9.3s1.5-7,3.9-9.3C155.6,135.6,159,134.1,162.6,134.1z"/>
	<path class="st34" d="M185.1,161.9c3.6,0,7,1.5,9.3,3.9c2.4,2.4,3.9,5.7,3.9,9.3s-1.5,7-3.9,9.3c-2.4,2.4-5.7,3.9-9.3,3.9
		s-7-1.5-9.3-3.9c-2.4-2.4-3.9-5.7-3.9-9.3s1.5-7,3.9-9.3C178.3,163.4,181.5,161.9,185.1,161.9z"/>
	<path class="st34" d="M241.8,101.2c3.6,0,7,1.5,9.3,3.9c2.4,2.4,3.9,5.7,3.9,9.3s-1.5,7-3.9,9.3s-5.7,3.9-9.3,3.9s-7-1.5-9.3-3.9
		c-2.4-2.4-3.9-5.7-3.9-9.3s1.5-7,3.9-9.3C234.8,102.6,238.2,101.2,241.8,101.2z"/>
</g>
<path class="st1" d="M652,180.6c-17.7-6.1-40.9-23.4-47.8-52c-8.1-33.5-3.7-56.7-3.7-56.9l0.2-0.8l0.8-0.3c0.2-0.1,5-1.9,22.9-6.5
	c18.4-4.7,27.5-6.6,27.9-6.7l0.3-0.1l0.5,0.1c1.6,0.3,10.5,2.2,27.6,6.6c17.9,4.6,22.4,6.5,22.6,6.6l0.7,0.3l0.2,0.8
	c0,0.2,4.8,23.5-3.3,56.9c-6.9,28.4-30,45.7-47.6,51.9l-0.7,0.3L652,180.6z"/>
<path class="st1" d="M652.2,180.2c-17.6-6.1-40.6-23.2-47.5-51.6c-8.1-33.4-3.7-56.5-3.7-56.7l0.1-0.5l0.5-0.2
	c0.2-0.1,5-1.9,22.9-6.5c18.8-4.9,27.8-6.7,27.8-6.7l0.2,0l0.4,0.1c1.6,0.3,10.5,2.2,27.6,6.6c17.8,4.6,22.3,6.5,22.5,6.5l0.5,0.2
	l0.1,0.5c0,0.2,4.8,23.3-3.3,56.7c-6.9,28.3-29.8,45.4-47.3,51.5l-0.6,0.2L652.2,180.2z"/>
<path class="st29" d="M652.3,179.7c-17.5-6-40.3-23.1-47.2-51.3c-8.1-33.3-3.7-56.2-3.7-56.5l0.1-0.3l0.3-0.1
	c0.2-0.1,5-1.9,22.8-6.5c18.8-4.9,27.7-6.7,27.8-6.7l0.1,0l0.7,0.2v120.9l-0.7,0.3L652.3,179.7z"/>
<path class="st29" d="M652.5,58.9c0,0-8.8,1.8-27.8,6.7C606.7,70.2,602,72,602,72s-4.5,22.7,3.7,56.3c6.6,27.1,28.2,44.5,46.9,50.9
	c0.1,0,0.2-0.1,0.2-0.1V58.9C652.6,58.9,652.5,58.9,652.5,58.9z"/>
<path class="st30" d="M652.2,58.3l0.6,0.1c1.6,0.3,10.4,2.2,27.6,6.6c17.8,4.6,22.3,6.4,22.4,6.5l0.2,0.1l0.1,0.3
	c0,0.2,4.8,23.2-3.3,56.5c-6.8,28.1-29.6,45.1-47,51.2l-0.7,0.2V58.3z"/>
<path class="st30" d="M699.4,128.3c8.2-33.5,3.3-56.3,3.3-56.3s-4.4-1.9-22.4-6.5c-17.2-4.4-26-6.3-27.6-6.6v120.2
	C671.4,172.6,692.8,155.3,699.4,128.3z"/>
<g>
	<circle class="st7" cx="652.7" cy="116" r="27.7"/>
</g>
<path class="st31" d="M642,117.4l5,7.1c0.7,1,2,1.2,3,0.6c0.2-0.1,0.4-0.3,0.5-0.5l16.2-20.4"/>
<line class="st23" x1="530.3" y1="98.8" x2="528.2" y2="87.7"/>
<line class="st23" x1="554" y1="81.6" x2="546.9" y2="112"/>
<path class="st23" d="M539.5,111.1c-0.7-0.5-1-1.1-1-1.1l4.8-24.8l-2.2-3.3"/>
</svg>
